<?xml version="1.0" standalone="no"?>
<svg xmlns:xlink="http://www.w3.org/1999/xlink" width="22" height="17" viewBox="0 0 22 17" fill="none" xmlns="http://www.w3.org/2000/svg" data-test-id="listing-views-logo"><path fill-rule="evenodd" clip-rule="evenodd" d="M21.301 9.94091C22.0523 9.01816 22.0523 7.73135 21.301 6.8086C19.4312 4.51186 15.517 0.499756 10.9913 0.499756C6.46557 0.499756 2.55146 4.51187 0.6816 6.8086C-0.0696486 7.73135 -0.0696475 9.01816 0.681601 9.94091C2.55146 12.2376 6.46557 16.2498 10.9913 16.2498C15.517 16.2498 19.4312 12.2376 21.301 9.94091ZM13.9999 7.99976C13.9999 9.65661 12.6567 10.9998 10.9999 10.9998C9.34302 10.9998 7.99987 9.65661 7.99987 7.99976C7.99987 6.3429 9.34302 4.99976 10.9999 4.99976C12.6567 4.99976 13.9999 6.3429 13.9999 7.99976ZM15.9999 7.99976C15.9999 10.7612 13.7613 12.9998 10.9999 12.9998C8.23845 12.9998 5.99987 10.7612 5.99987 7.99976C5.99987 5.23833 8.23845 2.99976 10.9999 2.99976C13.7613 2.99976 15.9999 5.23833 15.9999 7.99976Z" fill="black"/></svg>