<?xml version="1.0" standalone="no"?>
<svg xmlns:xlink="http://www.w3.org/1999/xlink" xmlns="http://www.w3.org/2000/svg" width="16" height="17" viewBox="0 0 16 17" fill="none" data-test-id="listing-share-logo"><path d="M15.06 6.68C15.06 6.54188 15.0031 6.41187 14.9056 6.31438L10.7456 2.15437C10.6481 2.05688 10.5181 2 10.38 2C10.0956 2 9.86 2.23562 9.86 2.52V4.6H8.04C5.375 4.6 2.06 5.07125 0.930625 7.87437C0.589375 8.73562 0.5 9.67 0.5 10.58C0.5 11.7175 1.06875 13.2044 1.53188 14.2444C1.62125 14.4313 1.71062 14.6913 1.8325 14.8619C1.88937 14.9431 1.94625 15 2.06 15C2.2225 15 2.32 14.87 2.32 14.7156C2.32 14.5856 2.2875 14.4394 2.27937 14.3094C2.255 13.9763 2.23875 13.6431 2.23875 13.31C2.23875 9.43438 4.53812 8.76 8.04 8.76H9.86V10.84C9.86 11.1244 10.0956 11.36 10.38 11.36C10.5181 11.36 10.6481 11.3031 10.7456 11.2056L14.9056 7.04563C15.0031 6.94813 15.06 6.81813 15.06 6.68Z" fill="black"/></svg>