<?xml version="1.0" standalone="no"?>
<svg xmlns:xlink="http://www.w3.org/1999/xlink" width="18" height="16" viewBox="0 0 16 16" fill="none" xmlns="http://www.w3.org/2000/svg"><path d="M5.54471 9.70306L5.46314 2.64253L3.17802 2.64253L3.2596 9.70306L2.28007 9.70306C1.36162 9.70306 0.928952 10.8374 1.6141 11.449L3.65457 13.2707C4.03396 13.6094 4.60713 13.6094 4.98652 13.2707L7.02699 11.449C7.71214 10.8374 7.27948 9.70306 6.36102 9.70306L5.54471 9.70306Z" fill="#FFFFFF"/><path d="M5.54471 9.70306L5.46314 2.14253L3.17802 2.14253L3.2596 9.70306L2.28007 9.70306C1.36162 9.70306 0.928952 10.8374 1.6141 11.449L3.65457 13.2707C4.03396 13.6094 4.60713 13.6094 4.98652 13.2707L7.02699 11.449C7.71214 10.8374 7.27948 9.70306 6.36102 9.70306L5.54471 9.70306Z" fill="#FFFFFF"/><path d="M10.2085 6.16218L10.29 13.7227L12.5751 13.7227L12.4936 6.16218L13.4731 6.16218C14.3916 6.16218 14.8242 5.02787 14.1391 4.4162L12.0986 2.59456C11.7192 2.25586 11.146 2.25586 10.7667 2.59456L8.72618 4.4162C8.04103 5.02787 8.47369 6.16218 9.39215 6.16218L10.2085 6.16218Z" fill="#FFFFFF"/></svg>